<mxfile host="app.diagrams.net" modified="2022-07-18T03:00:14.127Z" agent="5.0 (Windows NT 10.0; Win64; x64) AppleWebKit/537.36 (KHTML, like Gecko) Chrome/103.0.5060.114 Safari/537.36 Edg/103.0.1264.62" etag="ioXWL0xetbU3sut4oUvQ" version="20.1.1" type="github">
  <diagram id="ErMQ2x-8SDK05himzGdW" name="第 1 页">
    <mxGraphModel dx="1346" dy="820" grid="1" gridSize="10" guides="1" tooltips="1" connect="1" arrows="1" fold="1" page="1" pageScale="1" pageWidth="1169" pageHeight="827" math="0" shadow="0">
      <root>
        <mxCell id="0" />
        <mxCell id="1" parent="0" />
        <mxCell id="GySj4y0GzuySVMUoJGsc-1" value="" style="shape=image;verticalLabelPosition=bottom;labelBackgroundColor=#ffffff;verticalAlign=top;aspect=fixed;imageAspect=0;image=data:image/svg+xml,PHN2ZyB4bWxuczpjYz0iaHR0cDovL2NyZWF0aXZlY29tbW9ucy5vcmcvbnMjIiB4bWxuczpkYz0iaHR0cDovL3B1cmwub3JnL2RjL2VsZW1lbnRzLzEuMS8iIHhtbG5zOmlua3NjYXBlPSJodHRwOi8vd3d3Lmlua3NjYXBlLm9yZy9uYW1lc3BhY2VzL2lua3NjYXBlIiB4bWxuczpyZGY9Imh0dHA6Ly93d3cudzMub3JnLzE5OTkvMDIvMjItcmRmLXN5bnRheC1ucyMiIHhtbG5zOnNvZGlwb2RpPSJodHRwOi8vc29kaXBvZGkuc291cmNlZm9yZ2UubmV0L0RURC9zb2RpcG9kaS0wLmR0ZCIgeG1sbnM6c3ZnPSJodHRwOi8vd3d3LnczLm9yZy8yMDAwL3N2ZyIgeG1sbnM9Imh0dHA6Ly93d3cudzMub3JnLzIwMDAvc3ZnIiB4bWxuczp4bGluaz0iaHR0cDovL3d3dy53My5vcmcvMTk5OS94bGluayIgdmVyc2lvbj0iMS4xIiBpZD0ic3ZnNTc1ODIiIGlua3NjYXBlOnZlcnNpb249IjAuOTIuMyAoMjQwNTU0NiwgMjAxOC0wMy0xMSkiIHNvZGlwb2RpOmRvY25hbWU9ImFmZmlsaWF0ZV9wdWJsaXNoZXIuc3ZnIiB4PSIwcHgiIHk9IjBweCIgdmlld0JveD0iMCAwIDgwLjE5IDc0LjE0IiBzdHlsZT0iZW5hYmxlLWJhY2tncm91bmQ6bmV3IDAgMCA4MC4xOSA3NC4xNDsiIHhtbDpzcGFjZT0icHJlc2VydmUiPiYjeGE7PHNvZGlwb2RpOm5hbWVkdmlldyBib3JkZXJjb2xvcj0iIzY2NjY2NiIgYm9yZGVyb3BhY2l0eT0iMSIgZml0LW1hcmdpbi1ib3R0b209IjAiIGZpdC1tYXJnaW4tbGVmdD0iMCIgZml0LW1hcmdpbi1yaWdodD0iMCIgZml0LW1hcmdpbi10b3A9IjAiIGdyaWR0b2xlcmFuY2U9IjEwIiBndWlkZXRvbGVyYW5jZT0iMTAiIGlkPSJuYW1lZHZpZXc1NzU4NCIgaW5rc2NhcGU6Y3VycmVudC1sYXllcj0ic3ZnNTc1ODIiIGlua3NjYXBlOmN4PSI1My40NjI0MDIiIGlua3NjYXBlOmN5PSI0OS40Mjg5NTEiIGlua3NjYXBlOnBhZ2VvcGFjaXR5PSIwIiBpbmtzY2FwZTpwYWdlc2hhZG93PSIyIiBpbmtzY2FwZTp3aW5kb3ctaGVpZ2h0PSIxMDE3IiBpbmtzY2FwZTp3aW5kb3ctbWF4aW1pemVkPSIxIiBpbmtzY2FwZTp3aW5kb3ctd2lkdGg9IjE5MjAiIGlua3NjYXBlOndpbmRvdy14PSItOCIgaW5rc2NhcGU6d2luZG93LXk9Ii04IiBpbmtzY2FwZTp6b29tPSI4Ljc3MTAxNCIgb2JqZWN0dG9sZXJhbmNlPSIxMCIgcGFnZWNvbG9yPSIjZmZmZmZmIiBzaG93Z3JpZD0iZmFsc2UiPiYjeGE7CTwvc29kaXBvZGk6bmFtZWR2aWV3PiYjeGE7PGcgaWQ9Imc1NzU4MCIgdHJhbnNmb3JtPSJ0cmFuc2xhdGUoMCwtMS4wNzA0NzU3ZS00KSI+JiN4YTsJPHRpdGxlIGlkPSJ0aXRsZTU3NTczIj5QYWdlLTE8L3RpdGxlPiYjeGE7CTxnIGlkPSJzaGFwZTU0ODUtMSI+JiN4YTsJCTx0aXRsZSBpZD0idGl0bGU1NzU3NSI+QWZmaWxpYXRlIFB1Ymxpc2hlcjwvdGl0bGU+JiN4YTsJCTxwYXRoIGlkPSJwYXRoNTc1NzciIGlua3NjYXBlOmNvbm5lY3Rvci1jdXJ2YXR1cmU9IjAiIHN0eWxlPSJmaWxsOiMzRjU3NjU7IiBkPSJNNjIuMzMsMjAuMTRjMCwwLDAuMTEsMCwxMy44NSwwICAgIGMyLjIyLDAsNC4wMSwxLjk2LDQuMDEsNC4zM2MwLDAsMCwwLjE1LDAsMjAuNDFjMCwyLjM3LTEuNzksNC4zMy00LjAxLDQuMzNjMCwwLDAsMC4xMSwwLDE0LjU1YzAsMi4zNy0xLjgsNC4zMy00LjAyLDQuMzMgICAgYzAsMC0wLjA0LDAtNi4wMSwwYy0yLjAzLDAtMy44Mi0xLjk2LTMuODItNC4zM2MwLDAsMC0wLjEyLDAtMTQuNTVjLTIuMjIsMC00LjAyLTEuOTYtNC4wMi00LjMzYzAsMCwwLTAuMTUsMC0yMC40MSAgICBDNTguMzEsMjIuMSw2MC4xMSwyMC4xNCw2Mi4zMywyMC4xNHogTTQuMDIsMjAuMTRjMCwwLDAuMDcsMCwxMy44MSwwYzIuMTgsMCwzLjk4LDEuOTYsMy45OCw0LjMzYzAsMCwwLDAuMDgsMCwyMC40MSAgICBjMCwyLjM3LTEuOCw0LjMzLTMuOTgsNC4zM2MwLDAsMCwwLjA3LDAsMTQuNTVjMCwyLjM3LTEuOCw0LjMzLTMuNzksNC4zM2MwLDAtMC4wNywwLTYuMDEsMGMtMi4yMSwwLTQuMDEtMS45Ni00LjAxLTQuMzMgICAgYzAsMCwwLTAuMDgsMC0xNC41NUMxLjg0LDQ5LjIxLDAsNDcuMjUsMCw0NC44OGMwLDAsMC0wLjA4LDAtMjAuNDFDMCwyMi4xLDEuODQsMjAuMTQsNC4wMiwyMC4xNHogTTMyLjA2LDE4LjE5ICAgIGMwLDAsMC4xNiwwLDE2LjA3LDBjMi42NCwwLDQuODIsMi40MSw0LjgyLDUuMjFjMCwwLDAsMC4xNSwwLDIzLjY2YzAsMi44LTIuMTgsNS4yMS00LjgyLDUuMjFjMCwwLDAsMC4xMiwwLDE2LjcgICAgYzAsMi43OS0xLjk5LDUuMTctNC41OSw1LjE3YzAsMC0wLjA4LDAtNi44NSwwYy0yLjYsMC00LjYzLTIuMzgtNC42My01LjE3YzAsMCwwLTAuMTYsMC0xNi43Yy0yLjYsMC00LjgyLTIuNDEtNC44Mi01LjIxICAgIGMwLDAsMC0wLjE1LDAtMjMuNjZDMjcuMjQsMjAuNiwyOS40NiwxOC4xOSwzMi4wNiwxOC4xOXogTTY5LjI1LDQuNTJjMy42NCwwLDYuNTQsMy4yMiw2LjU0LDcuMTZzLTIuOSw3LjE2LTYuNTQsNy4xNiAgICBjLTMuNiwwLTYuNS0zLjIyLTYuNS03LjE2UzY1LjY1LDQuNTIsNjkuMjUsNC41MnogTTEwLjksNC41MmMzLjYsMCw2LjUxLDMuMjIsNi41MSw3LjE2cy0yLjkxLDcuMTYtNi41MSw3LjE2ICAgIGMtMy41NSwwLTYuNDYtMy4yMi02LjQ2LTcuMTZTNy4zNSw0LjUyLDEwLjksNC41MnogTTQwLjA2LDBjNC4yNSwwLDcuNjUsMy43NSw3LjY1LDguMzVjMCw0LjU1LTMuNCw4LjMxLTcuNjUsOC4zMSAgICBjLTQuMjEsMC03LjYyLTMuNzYtNy42Mi04LjMxQzMyLjQ0LDMuNzUsMzUuODUsMCw0MC4wNiwweiIvPiYjeGE7CTwvZz4mI3hhOzwvZz4mI3hhOzwvc3ZnPg==;" vertex="1" parent="1">
          <mxGeometry x="120.00000000000006" y="50" width="80" height="74" as="geometry" />
        </mxCell>
        <mxCell id="GySj4y0GzuySVMUoJGsc-6" style="edgeStyle=none;rounded=0;orthogonalLoop=1;jettySize=auto;html=1;fontColor=#FFFFFF;startArrow=none;startFill=0;endArrow=none;endFill=0;dashed=1;strokeColor=#0066CC;" edge="1" parent="1" source="GySj4y0GzuySVMUoJGsc-2">
          <mxGeometry relative="1" as="geometry">
            <mxPoint x="159.99999999999977" y="680" as="targetPoint" />
          </mxGeometry>
        </mxCell>
        <mxCell id="GySj4y0GzuySVMUoJGsc-2" value="&lt;font color=&quot;#ffffff&quot;&gt;中国银行用户&lt;/font&gt;" style="text;html=1;resizable=0;autosize=1;align=center;verticalAlign=middle;points=[];fillColor=#3399FF;strokeColor=none;rounded=0;" vertex="1" parent="1">
          <mxGeometry x="110" y="124" width="100" height="30" as="geometry" />
        </mxCell>
        <mxCell id="GySj4y0GzuySVMUoJGsc-7" style="edgeStyle=none;rounded=0;orthogonalLoop=1;jettySize=auto;html=1;dashed=1;fontColor=#FFFFFF;startArrow=none;startFill=0;endArrow=none;endFill=0;strokeColor=#0066CC;" edge="1" parent="1" source="GySj4y0GzuySVMUoJGsc-3">
          <mxGeometry relative="1" as="geometry">
            <mxPoint x="399.9999999999998" y="680" as="targetPoint" />
          </mxGeometry>
        </mxCell>
        <mxCell id="GySj4y0GzuySVMUoJGsc-3" value="&lt;font color=&quot;#ffffff&quot;&gt;注册、登陆系统&lt;/font&gt;" style="text;html=1;resizable=0;autosize=1;align=center;verticalAlign=middle;points=[];fillColor=#3399FF;strokeColor=none;rounded=0;" vertex="1" parent="1">
          <mxGeometry x="342" y="124" width="110" height="30" as="geometry" />
        </mxCell>
        <mxCell id="GySj4y0GzuySVMUoJGsc-8" style="edgeStyle=none;rounded=0;orthogonalLoop=1;jettySize=auto;html=1;dashed=1;fontColor=#FFFFFF;startArrow=none;startFill=0;endArrow=none;endFill=0;strokeColor=#0066CC;" edge="1" parent="1" source="GySj4y0GzuySVMUoJGsc-4">
          <mxGeometry relative="1" as="geometry">
            <mxPoint x="633" y="680" as="targetPoint" />
          </mxGeometry>
        </mxCell>
        <mxCell id="GySj4y0GzuySVMUoJGsc-4" value="&lt;font color=&quot;#ffffff&quot;&gt;短信服务系统&lt;/font&gt;" style="text;html=1;resizable=0;autosize=1;align=center;verticalAlign=middle;points=[];fillColor=#3399FF;strokeColor=none;rounded=0;" vertex="1" parent="1">
          <mxGeometry x="583" y="124" width="100" height="30" as="geometry" />
        </mxCell>
        <mxCell id="GySj4y0GzuySVMUoJGsc-9" style="edgeStyle=none;rounded=0;orthogonalLoop=1;jettySize=auto;html=1;dashed=1;fontColor=#FFFFFF;startArrow=none;startFill=0;endArrow=none;endFill=0;strokeColor=#0066CC;" edge="1" parent="1" source="GySj4y0GzuySVMUoJGsc-5">
          <mxGeometry relative="1" as="geometry">
            <mxPoint x="870" y="680" as="targetPoint" />
          </mxGeometry>
        </mxCell>
        <mxCell id="GySj4y0GzuySVMUoJGsc-5" value="&lt;font color=&quot;#ffffff&quot;&gt;网易云信云平台&lt;/font&gt;" style="text;html=1;resizable=0;autosize=1;align=center;verticalAlign=middle;points=[];fillColor=#3399FF;strokeColor=none;rounded=0;" vertex="1" parent="1">
          <mxGeometry x="815" y="124" width="110" height="30" as="geometry" />
        </mxCell>
        <mxCell id="GySj4y0GzuySVMUoJGsc-10" style="rounded=0;orthogonalLoop=1;jettySize=auto;html=1;fontColor=#FFFFFF;startArrow=none;startFill=0;endArrow=none;endFill=0;dashed=1;strokeColor=#0066CC;" edge="1" parent="1">
          <mxGeometry relative="1" as="geometry">
            <mxPoint x="159.99999999999977" y="680" as="targetPoint" />
            <mxPoint x="159.99999999999977" y="154" as="sourcePoint" />
          </mxGeometry>
        </mxCell>
        <mxCell id="GySj4y0GzuySVMUoJGsc-11" style="edgeStyle=none;rounded=0;orthogonalLoop=1;jettySize=auto;html=1;dashed=1;fontColor=#FFFFFF;startArrow=none;startFill=0;endArrow=none;endFill=0;strokeColor=#0066CC;" edge="1" parent="1">
          <mxGeometry relative="1" as="geometry">
            <mxPoint x="399.9999999999998" y="680" as="targetPoint" />
            <mxPoint x="397.0831792975971" y="154" as="sourcePoint" />
          </mxGeometry>
        </mxCell>
        <mxCell id="GySj4y0GzuySVMUoJGsc-12" value="" style="endArrow=classic;html=1;rounded=0;fontColor=#FFFFFF;strokeColor=#66CC00;endFill=1;startArrow=none;" edge="1" parent="1" source="GySj4y0GzuySVMUoJGsc-17">
          <mxGeometry width="50" height="50" relative="1" as="geometry">
            <mxPoint x="163" y="190" as="sourcePoint" />
            <mxPoint x="393" y="190" as="targetPoint" />
          </mxGeometry>
        </mxCell>
        <mxCell id="GySj4y0GzuySVMUoJGsc-15" value="" style="endArrow=classic;html=1;rounded=0;fontColor=#FFFFFF;strokeColor=#66CC00;endFill=1;startArrow=none;" edge="1" parent="1" source="GySj4y0GzuySVMUoJGsc-20">
          <mxGeometry width="50" height="50" relative="1" as="geometry">
            <mxPoint x="400.0000000000002" y="250.0000000000001" as="sourcePoint" />
            <mxPoint x="630" y="250" as="targetPoint" />
          </mxGeometry>
        </mxCell>
        <mxCell id="GySj4y0GzuySVMUoJGsc-17" value="&lt;font color=&quot;#000000&quot;&gt;1、用户输入手机号&lt;/font&gt;" style="text;html=1;resizable=0;autosize=1;align=center;verticalAlign=middle;points=[];fillColor=none;strokeColor=none;rounded=0;fontColor=#FFFFFF;" vertex="1" parent="1">
          <mxGeometry x="210" y="175" width="130" height="30" as="geometry" />
        </mxCell>
        <mxCell id="GySj4y0GzuySVMUoJGsc-18" value="" style="endArrow=none;html=1;rounded=0;fontColor=#FFFFFF;strokeColor=#66CC00;endFill=1;" edge="1" parent="1" target="GySj4y0GzuySVMUoJGsc-17">
          <mxGeometry width="50" height="50" relative="1" as="geometry">
            <mxPoint x="163" y="190" as="sourcePoint" />
            <mxPoint x="393" y="190" as="targetPoint" />
          </mxGeometry>
        </mxCell>
        <mxCell id="GySj4y0GzuySVMUoJGsc-20" value="2、申请发送验证码" style="text;html=1;resizable=0;autosize=1;align=center;verticalAlign=middle;points=[];fillColor=none;strokeColor=none;rounded=0;fontColor=#000000;" vertex="1" parent="1">
          <mxGeometry x="445" y="235" width="130" height="30" as="geometry" />
        </mxCell>
        <mxCell id="GySj4y0GzuySVMUoJGsc-21" value="" style="endArrow=none;html=1;rounded=0;fontColor=#FFFFFF;strokeColor=#66CC00;endFill=1;" edge="1" parent="1" target="GySj4y0GzuySVMUoJGsc-20">
          <mxGeometry width="50" height="50" relative="1" as="geometry">
            <mxPoint x="400.0000000000002" y="250.0000000000001" as="sourcePoint" />
            <mxPoint x="630" y="250" as="targetPoint" />
          </mxGeometry>
        </mxCell>
        <mxCell id="GySj4y0GzuySVMUoJGsc-22" value="" style="endArrow=classic;html=1;rounded=0;fontColor=#FFFFFF;strokeColor=#66CC00;endFill=1;startArrow=none;" edge="1" source="GySj4y0GzuySVMUoJGsc-23" parent="1">
          <mxGeometry width="50" height="50" relative="1" as="geometry">
            <mxPoint x="637.0000000000002" y="328.0000000000001" as="sourcePoint" />
            <mxPoint x="867" y="328" as="targetPoint" />
          </mxGeometry>
        </mxCell>
        <mxCell id="GySj4y0GzuySVMUoJGsc-23" value="3、调用云平台短信服务" style="text;html=1;resizable=0;autosize=1;align=center;verticalAlign=middle;points=[];fillColor=none;strokeColor=none;rounded=0;fontColor=#000000;" vertex="1" parent="1">
          <mxGeometry x="672" y="313" width="150" height="30" as="geometry" />
        </mxCell>
        <mxCell id="GySj4y0GzuySVMUoJGsc-24" value="" style="endArrow=none;html=1;rounded=0;fontColor=#FFFFFF;strokeColor=#66CC00;endFill=1;" edge="1" target="GySj4y0GzuySVMUoJGsc-23" parent="1">
          <mxGeometry width="50" height="50" relative="1" as="geometry">
            <mxPoint x="637.0000000000002" y="328.0000000000001" as="sourcePoint" />
            <mxPoint x="867" y="328" as="targetPoint" />
          </mxGeometry>
        </mxCell>
        <mxCell id="GySj4y0GzuySVMUoJGsc-25" style="edgeStyle=none;rounded=0;orthogonalLoop=1;jettySize=auto;html=1;dashed=1;fontColor=#FFFFFF;startArrow=none;startFill=0;endArrow=none;endFill=0;strokeColor=#0066CC;" edge="1" source="GySj4y0GzuySVMUoJGsc-26" parent="1">
          <mxGeometry relative="1" as="geometry">
            <mxPoint x="1105.0000000000005" y="680" as="targetPoint" />
          </mxGeometry>
        </mxCell>
        <mxCell id="GySj4y0GzuySVMUoJGsc-26" value="&lt;font color=&quot;#ffffff&quot;&gt;运营商系统&lt;/font&gt;" style="text;html=1;resizable=0;autosize=1;align=center;verticalAlign=middle;points=[];fillColor=#3399FF;strokeColor=none;rounded=0;" vertex="1" parent="1">
          <mxGeometry x="1065" y="124" width="80" height="30" as="geometry" />
        </mxCell>
        <mxCell id="GySj4y0GzuySVMUoJGsc-27" value="" style="endArrow=classic;html=1;rounded=0;fontColor=#FFFFFF;strokeColor=#66CC00;endFill=1;startArrow=none;" edge="1" source="GySj4y0GzuySVMUoJGsc-28" parent="1">
          <mxGeometry width="50" height="50" relative="1" as="geometry">
            <mxPoint x="870.0000000000002" y="398.0000000000001" as="sourcePoint" />
            <mxPoint x="1100" y="398" as="targetPoint" />
          </mxGeometry>
        </mxCell>
        <mxCell id="GySj4y0GzuySVMUoJGsc-28" value="4、调用运营商短信服务" style="text;html=1;resizable=0;autosize=1;align=center;verticalAlign=middle;points=[];fillColor=none;strokeColor=none;rounded=0;fontColor=#000000;" vertex="1" parent="1">
          <mxGeometry x="905" y="383" width="150" height="30" as="geometry" />
        </mxCell>
        <mxCell id="GySj4y0GzuySVMUoJGsc-29" value="" style="endArrow=none;html=1;rounded=0;fontColor=#FFFFFF;strokeColor=#66CC00;endFill=1;" edge="1" target="GySj4y0GzuySVMUoJGsc-28" parent="1">
          <mxGeometry width="50" height="50" relative="1" as="geometry">
            <mxPoint x="870" y="398" as="sourcePoint" />
            <mxPoint x="1100" y="398" as="targetPoint" />
          </mxGeometry>
        </mxCell>
        <mxCell id="GySj4y0GzuySVMUoJGsc-30" value="" style="endArrow=classic;html=1;rounded=0;fontColor=#000000;strokeColor=#66CC00;startArrow=none;" edge="1" parent="1" source="GySj4y0GzuySVMUoJGsc-33">
          <mxGeometry width="50" height="50" relative="1" as="geometry">
            <mxPoint x="1098" y="480" as="sourcePoint" />
            <mxPoint x="168" y="480" as="targetPoint" />
          </mxGeometry>
        </mxCell>
        <mxCell id="GySj4y0GzuySVMUoJGsc-32" value="" style="endArrow=classic;html=1;rounded=0;fontColor=#000000;strokeColor=#66CC00;startArrow=none;" edge="1" parent="1" source="GySj4y0GzuySVMUoJGsc-37">
          <mxGeometry width="50" height="50" relative="1" as="geometry">
            <mxPoint x="1098" y="520" as="sourcePoint" />
            <mxPoint x="638" y="520" as="targetPoint" />
          </mxGeometry>
        </mxCell>
        <mxCell id="GySj4y0GzuySVMUoJGsc-33" value="5、发送验证码至用户手机" style="text;html=1;resizable=0;autosize=1;align=center;verticalAlign=middle;points=[];fillColor=none;strokeColor=none;rounded=0;fontColor=#000000;" vertex="1" parent="1">
          <mxGeometry x="525" y="465" width="160" height="30" as="geometry" />
        </mxCell>
        <mxCell id="GySj4y0GzuySVMUoJGsc-35" value="" style="endArrow=none;html=1;rounded=0;fontColor=#000000;strokeColor=#66CC00;" edge="1" parent="1" target="GySj4y0GzuySVMUoJGsc-33">
          <mxGeometry width="50" height="50" relative="1" as="geometry">
            <mxPoint x="1098" y="480" as="sourcePoint" />
            <mxPoint x="167.99999999999977" y="480" as="targetPoint" />
          </mxGeometry>
        </mxCell>
        <mxCell id="GySj4y0GzuySVMUoJGsc-37" value="6、发送验证码至短信服务系统" style="text;html=1;resizable=0;autosize=1;align=center;verticalAlign=middle;points=[];fillColor=none;strokeColor=none;rounded=0;fontColor=#000000;" vertex="1" parent="1">
          <mxGeometry x="775" y="505" width="190" height="30" as="geometry" />
        </mxCell>
        <mxCell id="GySj4y0GzuySVMUoJGsc-40" value="" style="endArrow=none;html=1;rounded=0;fontColor=#000000;strokeColor=#66CC00;" edge="1" parent="1" target="GySj4y0GzuySVMUoJGsc-37">
          <mxGeometry width="50" height="50" relative="1" as="geometry">
            <mxPoint x="1098" y="520" as="sourcePoint" />
            <mxPoint x="638" y="520" as="targetPoint" />
          </mxGeometry>
        </mxCell>
        <mxCell id="GySj4y0GzuySVMUoJGsc-41" value="" style="endArrow=classic;html=1;rounded=0;fontColor=#000000;strokeColor=#66CC00;startArrow=none;" edge="1" parent="1" source="GySj4y0GzuySVMUoJGsc-44">
          <mxGeometry width="50" height="50" relative="1" as="geometry">
            <mxPoint x="162" y="616" as="sourcePoint" />
            <mxPoint x="632" y="616" as="targetPoint" />
          </mxGeometry>
        </mxCell>
        <mxCell id="GySj4y0GzuySVMUoJGsc-44" value="8、用户填写验证码" style="text;html=1;resizable=0;autosize=1;align=center;verticalAlign=middle;points=[];fillColor=none;strokeColor=none;rounded=0;fontColor=#000000;" vertex="1" parent="1">
          <mxGeometry x="332" y="601" width="130" height="30" as="geometry" />
        </mxCell>
        <mxCell id="GySj4y0GzuySVMUoJGsc-45" value="" style="endArrow=none;html=1;rounded=0;fontColor=#000000;strokeColor=#66CC00;" edge="1" parent="1" target="GySj4y0GzuySVMUoJGsc-44">
          <mxGeometry width="50" height="50" relative="1" as="geometry">
            <mxPoint x="162" y="616" as="sourcePoint" />
            <mxPoint x="632" y="616" as="targetPoint" />
          </mxGeometry>
        </mxCell>
        <mxCell id="GySj4y0GzuySVMUoJGsc-46" value="" style="endArrow=classic;html=1;rounded=0;fontColor=#000000;strokeColor=#66CC00;startArrow=none;" edge="1" parent="1" source="GySj4y0GzuySVMUoJGsc-47">
          <mxGeometry width="50" height="50" relative="1" as="geometry">
            <mxPoint x="632" y="656" as="sourcePoint" />
            <mxPoint x="160" y="656" as="targetPoint" />
          </mxGeometry>
        </mxCell>
        <mxCell id="GySj4y0GzuySVMUoJGsc-47" value="9、返回对比结果" style="text;html=1;resizable=0;autosize=1;align=center;verticalAlign=middle;points=[];fillColor=none;strokeColor=none;rounded=0;fontColor=#000000;" vertex="1" parent="1">
          <mxGeometry x="339" y="640" width="110" height="30" as="geometry" />
        </mxCell>
        <mxCell id="GySj4y0GzuySVMUoJGsc-48" value="" style="endArrow=none;html=1;rounded=0;fontColor=#000000;strokeColor=#66CC00;" edge="1" parent="1" target="GySj4y0GzuySVMUoJGsc-47">
          <mxGeometry width="50" height="50" relative="1" as="geometry">
            <mxPoint x="632" y="656" as="sourcePoint" />
            <mxPoint x="160" y="659" as="targetPoint" />
          </mxGeometry>
        </mxCell>
        <mxCell id="GySj4y0GzuySVMUoJGsc-51" value="" style="endArrow=classic;html=1;rounded=0;fontColor=#000000;strokeColor=#66CC00;elbow=vertical;" edge="1" parent="1">
          <mxGeometry width="50" height="50" relative="1" as="geometry">
            <mxPoint x="675" y="590" as="sourcePoint" />
            <mxPoint x="635" y="590" as="targetPoint" />
          </mxGeometry>
        </mxCell>
        <mxCell id="GySj4y0GzuySVMUoJGsc-55" value="" style="endArrow=none;html=1;rounded=0;fontColor=#000000;strokeColor=#66CC00;elbow=vertical;startArrow=none;startFill=0;endFill=0;" edge="1" parent="1">
          <mxGeometry width="50" height="50" relative="1" as="geometry">
            <mxPoint x="675" y="540" as="sourcePoint" />
            <mxPoint x="635" y="540" as="targetPoint" />
          </mxGeometry>
        </mxCell>
        <mxCell id="GySj4y0GzuySVMUoJGsc-59" value="" style="endArrow=none;html=1;rounded=0;fontColor=#000000;strokeColor=#66CC00;elbow=vertical;startArrow=none;" edge="1" parent="1" source="GySj4y0GzuySVMUoJGsc-60">
          <mxGeometry width="50" height="50" relative="1" as="geometry">
            <mxPoint x="675" y="590" as="sourcePoint" />
            <mxPoint x="675" y="540" as="targetPoint" />
          </mxGeometry>
        </mxCell>
        <mxCell id="GySj4y0GzuySVMUoJGsc-60" value="7、存储验证码" style="text;html=1;resizable=0;autosize=1;align=center;verticalAlign=middle;points=[];fillColor=none;strokeColor=none;rounded=0;fontColor=#000000;" vertex="1" parent="1">
          <mxGeometry x="625" y="550" width="100" height="30" as="geometry" />
        </mxCell>
        <mxCell id="GySj4y0GzuySVMUoJGsc-61" value="" style="endArrow=none;html=1;rounded=0;fontColor=#000000;strokeColor=#66CC00;elbow=vertical;" edge="1" parent="1" target="GySj4y0GzuySVMUoJGsc-60">
          <mxGeometry width="50" height="50" relative="1" as="geometry">
            <mxPoint x="675" y="590" as="sourcePoint" />
            <mxPoint x="675" y="540" as="targetPoint" />
          </mxGeometry>
        </mxCell>
      </root>
    </mxGraphModel>
  </diagram>
</mxfile>
